# xmcd
#
# Track frame offsets:
# 150
# 5523
# 15321
# 29094
# 44892
# 65490
# 89763
# 108111
# 126609
# 144732
# 178905
# 206253
# 232776
# 248949
# 272547
# 295845
#
# Disc length: 4353 seconds
#
#
# Revision: 5
# Processed by: cddbd v1.5.2PL0 Copyright (c) Steve Scherf et al.
# Submitted via: FreeRIP 2.943 
#
DISCID=ed10ff10
DTITLE=Alicia Keys - Unplugged
DYEAR=2005
DGENRE=R&B
TTITLE0=Alicia Keys - Unplugged - 01 Intro Alicia's Prayer [Acapella]
TTITLE1=Alicia Keys - Unplugged - 02 Karma
TTITLE2=Alicia Keys - Unplugged - 03 Heartburn
TTITLE3=Alicia Keys - Unplugged - 04 A Woman's Worth [Live]
TTITLE4=Alicia Keys - Unplugged - 05 Unbreakable
TTITLE5=Alicia Keys - Unplugged - 06 How Come You Don't Call Me
TTITLE6=Alicia Keys - Unplugged - 07 If I Was Your Woman
TTITLE7=Alicia Keys - Unplugged - 08 If I Ain't Got You
TTITLE8=Alicia Keys - Unplugged - 09 Every Little Bit Hurts
TTITLE9=Alicia Keys - Unplugged - 10 Streets Of New York [City Life]
TTITLE10=Alicia Keys - Unplugged - 11 Wild Horses [featuring Adam Levine]
TTITLE11=Alicia Keys - Unplugged - 12 Diary
TTITLE12=Alicia Keys - Unplugged - 13 You Don't Know My Name
TTITLE13=Alicia Keys - Unplugged - 14 Stolen Moments
TTITLE14=Alicia Keys - Unplugged - 15 Fallin'
TTITLE15=Welcome To Jamrock [with Damian Marley, Mos Def, Comon and Friends]
EXTD=YEAR: 2005
EXTT0=
EXTT1=
EXTT2=
EXTT3=
EXTT4=
EXTT5=
EXTT6=
EXTT7=
EXTT8=
EXTT9=
EXTT10=
EXTT11=
EXTT12=
EXTT13=
EXTT14=
EXTT15=
PLAYORDER=
